<svg xmlns="http://www.w3.org/2000/svg" viewBox="0 0 64 64" role="img" aria-labelledby="title desc">
  <title id="title">Sword favicon</title>
  <desc id="desc">A diagonal sword with an outlined blade, crossguard, and wrapped handle.</desc>
  <rect width="64" height="64" fill="#fff" />
  <g transform="rotate(-45 32 32)">
    <path d="M29 6.5h6l2.2 6v28.5L32 56.5l-5.2-15.5V12.5l2.2-6Z" fill="#fff" stroke="#111820" stroke-width="3.2" stroke-linejoin="round" />
    <path d="M31.8 12.4h1.4v27h-1.4z" fill="#111820" />
    <rect x="18" y="31.8" width="28" height="8" rx="4" fill="#fff" stroke="#111820" stroke-width="3.2" />
    <path d="M22 38.5c2.4 1.5 4.8 3 7.2 4.5" stroke="#111820" stroke-width="2.6" stroke-linecap="round" />
    <path d="M23.6 42.4c2.4 1.5 4.8 3 7.2 4.5" stroke="#111820" stroke-width="2.6" stroke-linecap="round" />
    <path d="M25.2 46.4c2.4 1.5 4.8 3 7.2 4.5" stroke="#111820" stroke-width="2.6" stroke-linecap="round" />
    <path d="M26.8 50.3c1.8 1.1 3.6 2.2 5.4 3.3" stroke="#111820" stroke-width="2.6" stroke-linecap="round" />
    <path d="M23 51c0-2.8 2.2-5 5-5h8c2.8 0 5 2.2 5 5v5c0 2.8-2.2 5-5 5h-8c-2.8 0-5-2.2-5-5v-5Z" fill="#fff" stroke="#111820" stroke-width="3.2" stroke-linejoin="round" />
    <path d="M27 57.5h10" stroke="#111820" stroke-width="3.2" stroke-linecap="round" />
  </g>
</svg>